<?xml version="1.0" encoding="utf-8"?>
<!-- Generator: Adobe Illustrator 27.9.0, SVG Export Plug-In . SVG Version: 6.00 Build 0)  -->
<svg version="1.1" id="Layer_1" xmlns="http://www.w3.org/2000/svg" xmlns:xlink="http://www.w3.org/1999/xlink" x="0px" y="0px"
	 viewBox="0 0 141.7 39.7" style="enable-background:new 0 0 141.7 39.7;" xml:space="preserve">
<style type="text/css">
	.st0{fill:#FFFFFF;}
</style>
<g>
	<path class="st0" d="M44.6,23.8c0.3-0.4,0.4-0.9,0.4-1.5c0-0.5-0.1-1-0.4-1.3c-0.2-0.3-0.6-0.6-1.1-0.9c-0.5-0.2-1.1-0.5-1.8-0.7
		c-0.7-0.2-1.3-0.4-1.7-0.6c-0.4-0.2-0.8-0.4-1-0.7s-0.3-0.6-0.3-1c0-0.6,0.2-1,0.7-1.3c0.5-0.3,1-0.4,1.8-0.4
		c0.7,0,1.3,0.2,1.8,0.5c0.5,0.3,0.7,0.7,0.8,1.2c0,0.1,0.1,0.2,0.1,0.2c0.1,0,0.1,0.1,0.2,0.1h0.3c0.1,0,0.2,0,0.2-0.1
		c0-0.1,0.1-0.1,0.1-0.2c0-0.3-0.1-0.6-0.2-0.9c-0.1-0.3-0.4-0.6-0.6-0.8c-0.3-0.3-0.6-0.5-1.1-0.6c-0.4-0.2-0.9-0.2-1.5-0.2
		c-0.7,0-1.3,0.1-1.8,0.4c-0.5,0.2-0.9,0.5-1.1,0.9c-0.3,0.4-0.4,0.8-0.4,1.3c0,0.5,0.1,1,0.3,1.3c0.2,0.3,0.5,0.6,1,0.9
		c0.4,0.2,1,0.5,1.7,0.7c0.7,0.2,1.3,0.4,1.8,0.6s0.8,0.4,1,0.6c0.2,0.2,0.3,0.6,0.3,0.9c0,0.6-0.2,1-0.7,1.4
		c-0.4,0.3-1.1,0.5-2.1,0.5c-0.6,0-1.1-0.1-1.5-0.3c-0.4-0.2-0.7-0.4-0.9-0.7c-0.2-0.3-0.3-0.5-0.4-0.8c0-0.1,0-0.1-0.1-0.2
		c-0.1-0.1-0.1-0.1-0.2-0.1h-0.3c-0.1,0-0.2,0-0.2,0.1c-0.1,0.1-0.1,0.1-0.1,0.2c0,0.4,0.2,0.9,0.5,1.3c0.3,0.4,0.7,0.7,1.3,1
		c0.5,0.3,1.2,0.4,2,0.4c0.8,0,1.4-0.1,2-0.3C43.8,24.5,44.3,24.2,44.6,23.8z"/>
	<path class="st0" d="M46.2,24.9h0.3c0.1,0,0.2,0,0.2-0.1c0.1-0.1,0.1-0.1,0.1-0.1l0.9-2.3h5.2l0.9,2.3c0,0,0.1,0.1,0.1,0.1
		c0,0.1,0.1,0.1,0.2,0.1h0.3c0.1,0,0.1,0,0.2-0.1c0.1-0.1,0.1-0.1,0.1-0.2c0,0,0-0.1,0-0.2L51,15c0-0.1-0.1-0.2-0.2-0.2
		c-0.1,0-0.2-0.1-0.3-0.1h-0.5c-0.1,0-0.2,0-0.3,0.1c-0.1,0-0.1,0.1-0.2,0.2L46,24.5c0,0.1,0,0.1,0,0.2c0,0.1,0,0.1,0.1,0.2
		C46.1,24.9,46.1,24.9,46.2,24.9z M50.3,15.8l2.2,5.8h-4.5L50.3,15.8z"/>
	<path class="st0" d="M62.4,24.1h-5v-9c0-0.1,0-0.2-0.1-0.2c-0.1-0.1-0.1-0.1-0.2-0.1h-0.3c-0.1,0-0.2,0-0.2,0.1S56.4,15,56.4,15
		v9.6c0,0.1,0,0.2,0.1,0.2c0.1,0.1,0.1,0.1,0.2,0.1h5.6c0.1,0,0.2,0,0.2-0.1c0.1-0.1,0.1-0.1,0.1-0.2v-0.2c0-0.1,0-0.2-0.1-0.2
		C62.6,24.1,62.5,24.1,62.4,24.1z"/>
	<path class="st0" d="M71.3,14.7H71c-0.1,0-0.2,0-0.2,0.1c-0.1,0.1-0.1,0.1-0.1,0.2v6c0,1.1-0.3,1.9-0.8,2.4
		c-0.5,0.5-1.2,0.8-2.1,0.8c-0.9,0-1.6-0.3-2.1-0.8C65.3,22.9,65,22.1,65,21v-6c0-0.1,0-0.2-0.1-0.2c-0.1-0.1-0.1-0.1-0.2-0.1h-0.3
		c-0.1,0-0.2,0-0.2,0.1c-0.1,0.1-0.1,0.1-0.1,0.2V21c0,0.9,0.2,1.7,0.5,2.3c0.3,0.6,0.7,1.1,1.3,1.3c0.6,0.3,1.2,0.4,2,0.4
		c0.8,0,1.5-0.1,2-0.4c0.6-0.3,1-0.7,1.3-1.3c0.3-0.6,0.4-1.4,0.4-2.3v-5.9c0-0.1,0-0.2-0.1-0.2C71.4,14.8,71.4,14.7,71.3,14.7z"/>
	<path class="st0" d="M81.4,16.5c-0.2-0.6-0.7-1-1.2-1.3c-0.6-0.3-1.4-0.5-2.4-0.5h-3.1c-0.1,0-0.2,0-0.2,0.1s-0.1,0.1-0.1,0.2v9.6
		c0,0.1,0,0.2,0.1,0.2c0.1,0.1,0.1,0.1,0.2,0.1h3.2c1,0,1.8-0.1,2.4-0.4c0.6-0.3,1-0.7,1.2-1.3c0.2-0.6,0.4-1.3,0.4-2.2
		c0-0.4,0-0.8,0-1.2c0-0.3,0-0.7,0-1.2C81.7,17.8,81.6,17.1,81.4,16.5z M80.8,20.1c0,0.2,0,0.5,0,0.8c0,0.8-0.1,1.4-0.3,1.8
		c-0.2,0.5-0.5,0.8-1,1c-0.5,0.2-1.1,0.3-1.8,0.3h-2.5v-8.5h2.4c1.2,0,2,0.3,2.5,0.8c0.5,0.5,0.7,1.3,0.7,2.4c0,0.3,0,0.5,0,0.8
		C80.8,19.7,80.8,19.9,80.8,20.1z"/>
	<path class="st0" d="M93.4,14.7h-1.6c-0.2,0-0.3,0-0.4,0.1c-0.1,0.1-0.1,0.1-0.2,0.2l-2.6,4.6L86.2,15c0,0-0.1-0.1-0.2-0.2
		c-0.1-0.1-0.2-0.1-0.4-0.1h-1.6c-0.1,0-0.2,0-0.3,0.1c-0.1,0.1-0.1,0.2-0.1,0.3v9.5c0,0.1,0,0.2,0.1,0.3c0.1,0.1,0.2,0.1,0.3,0.1
		h1.8c0.1,0,0.2,0,0.3-0.1c0.1-0.1,0.1-0.2,0.1-0.3v-5.5l1.6,3.1c0,0.1,0.1,0.2,0.2,0.2c0.1,0.1,0.2,0.1,0.3,0.1h0.8
		c0.1,0,0.2,0,0.3-0.1c0.1-0.1,0.1-0.1,0.2-0.2l1.6-3.1v5.5c0,0.1,0,0.2,0.1,0.3c0.1,0.1,0.2,0.1,0.3,0.1h1.7c0.1,0,0.2,0,0.3-0.1
		c0.1-0.1,0.1-0.2,0.1-0.3v-9.5c0-0.1,0-0.2-0.1-0.3C93.6,14.8,93.6,14.7,93.4,14.7z"/>
	<path class="st0" d="M103.2,22.8h-4.8v-2h4.3c0.1,0,0.2,0,0.3-0.1c0.1-0.1,0.1-0.2,0.1-0.3v-1.3c0-0.1,0-0.2-0.1-0.3
		c-0.1-0.1-0.2-0.1-0.3-0.1h-4.3v-2h4.7c0.1,0,0.2,0,0.3-0.1c0.1-0.1,0.1-0.2,0.1-0.3v-1.4c0-0.1,0-0.2-0.1-0.3
		c-0.1-0.1-0.2-0.1-0.3-0.1h-6.8c-0.1,0-0.2,0-0.3,0.1c-0.1,0.1-0.1,0.2-0.1,0.3v9.5c0,0.1,0,0.2,0.1,0.3c0.1,0.1,0.2,0.1,0.3,0.1
		h6.9c0.1,0,0.2,0,0.3-0.1c0.1-0.1,0.1-0.2,0.1-0.3v-1.4c0-0.1,0-0.2-0.1-0.3C103.3,22.9,103.3,22.8,103.2,22.8z"/>
	<path class="st0" d="M113.3,14.7h-1.8c-0.1,0-0.2,0-0.3,0.1c-0.1,0.1-0.1,0.2-0.1,0.3v5.5l-3.6-5.6c0,0-0.1-0.1-0.1-0.2
		c-0.1-0.1-0.2-0.1-0.4-0.1h-1.5c-0.1,0-0.2,0-0.3,0.1c-0.1,0.1-0.1,0.2-0.1,0.3v9.5c0,0.1,0,0.2,0.1,0.3c0.1,0.1,0.2,0.1,0.3,0.1
		h1.8c0.1,0,0.2,0,0.3-0.1c0.1-0.1,0.1-0.2,0.1-0.3v-5.3l3.6,5.4c0,0,0.1,0.1,0.1,0.2c0.1,0.1,0.2,0.1,0.3,0.1h1.6
		c0.1,0,0.2,0,0.3-0.1c0.1-0.1,0.1-0.2,0.1-0.3v-9.5c0-0.1,0-0.2-0.1-0.3C113.5,14.8,113.4,14.7,113.3,14.7z"/>
	<path class="st0" d="M123.4,16.9c0.1-0.1,0.1-0.2,0.1-0.3v-1.6c0-0.1,0-0.2-0.1-0.3c-0.1-0.1-0.2-0.1-0.3-0.1h-7.9
		c-0.1,0-0.2,0-0.3,0.1c-0.1,0.1-0.1,0.2-0.1,0.3v1.6c0,0.1,0,0.2,0.1,0.3c0.1,0.1,0.2,0.1,0.3,0.1h2.6v7.6c0,0.1,0,0.2,0.1,0.3
		c0.1,0.1,0.2,0.1,0.3,0.1h1.9c0.1,0,0.2,0,0.3-0.1c0.1-0.1,0.1-0.2,0.1-0.3V17h2.6C123.3,17,123.4,17,123.4,16.9z"/>
	<path class="st0" d="M129.7,15.1c0-0.1-0.1-0.2-0.2-0.3c-0.1-0.1-0.2-0.1-0.4-0.1H127c-0.2,0-0.3,0-0.4,0.1
		c-0.1,0.1-0.2,0.2-0.2,0.3l-3.4,9.4c0,0,0,0.1,0,0.1c0,0.1,0,0.1,0.1,0.2c0.1,0.1,0.1,0.1,0.2,0.1h1.8c0.2,0,0.3,0,0.4-0.1
		c0.1-0.1,0.1-0.1,0.1-0.2l0.6-1.5h3.9l0.6,1.5c0,0.1,0.1,0.1,0.1,0.2c0.1,0.1,0.2,0.1,0.3,0.1h1.8c0.1,0,0.2,0,0.2-0.1
		c0.1-0.1,0.1-0.1,0.1-0.2c0,0,0-0.1,0-0.1L129.7,15.1z M126.7,21l1.3-3.9l1.4,3.9H126.7z"/>
	<path class="st0" d="M141.6,22.8c-0.1-0.1-0.2-0.1-0.3-0.1h-4.4v-7.6c0-0.1,0-0.2-0.1-0.3c-0.1-0.1-0.2-0.1-0.3-0.1h-1.9
		c-0.1,0-0.2,0-0.3,0.1c-0.1,0.1-0.1,0.2-0.1,0.3v9.5c0,0.1,0,0.2,0.1,0.3c0.1,0.1,0.2,0.1,0.3,0.1h6.7c0.1,0,0.2,0,0.3-0.1
		c0.1-0.1,0.1-0.2,0.1-0.3v-1.5C141.7,23,141.7,22.9,141.6,22.8z"/>
	<path class="st0" d="M42.2,30.2c-0.4-0.2-0.8-0.4-1.4-0.4c-0.6,0-1.1,0.1-1.5,0.4c-0.4,0.2-0.8,0.6-1.1,1c-0.3,0.4-0.5,0.9-0.6,1.4
		c0,0.1-0.1,0.3-0.1,0.5s-0.1,0.4-0.1,0.5c-0.1,0.5-0.1,1,0.1,1.4c0.1,0.4,0.4,0.8,0.7,1c0.4,0.2,0.8,0.4,1.4,0.4
		c0.6,0,1.1-0.1,1.5-0.4c0.4-0.2,0.8-0.6,1.1-1c0.3-0.4,0.5-0.9,0.6-1.4c0-0.1,0.1-0.3,0.1-0.5c0-0.2,0.1-0.4,0.1-0.5
		c0.1-0.5,0.1-1-0.1-1.4C42.8,30.8,42.5,30.5,42.2,30.2z M42.2,32.7c0,0.1-0.1,0.3-0.1,0.4c0,0.2-0.1,0.3-0.1,0.4
		c-0.2,0.7-0.5,1.2-0.9,1.6c-0.5,0.4-1,0.5-1.5,0.5c-0.6,0-1-0.2-1.2-0.5c-0.2-0.4-0.3-0.9-0.2-1.6c0-0.1,0-0.3,0.1-0.4
		c0-0.2,0.1-0.3,0.1-0.4c0.2-0.7,0.5-1.2,0.9-1.6c0.5-0.4,1-0.5,1.5-0.5c0.6,0,1,0.2,1.2,0.5C42.3,31.5,42.3,32,42.2,32.7z"/>
	<path class="st0" d="M49.3,30.2c-0.3-0.2-0.8-0.4-1.4-0.4c-0.5,0-0.9,0.1-1.2,0.3c-0.4,0.2-0.7,0.4-0.9,0.7l0.1-0.6
		c0-0.1,0-0.1,0-0.2c0,0-0.1-0.1-0.2-0.1h-0.2c-0.1,0-0.2,0-0.2,0.1c-0.1,0-0.1,0.1-0.1,0.2L43.9,36c0,0.1,0,0.1,0,0.2
		c0,0,0.1,0.1,0.2,0.1h0.2c0.1,0,0.1,0,0.2-0.1c0.1,0,0.1-0.1,0.1-0.2l0.7-3.4c0.1-0.6,0.4-1.2,0.9-1.5c0.5-0.4,1-0.6,1.6-0.6
		c0.7,0,1.1,0.2,1.2,0.5c0.2,0.3,0.2,0.9,0,1.6L48.4,36c0,0.1,0,0.1,0,0.2c0,0,0.1,0.1,0.2,0.1h0.2c0.1,0,0.1,0,0.2-0.1
		c0.1,0,0.1-0.1,0.1-0.2l0.7-3.4c0.1-0.5,0.1-1,0-1.4C49.8,30.8,49.6,30.5,49.3,30.2z"/>
	<path class="st0" d="M53.3,27.7h-0.2c-0.1,0-0.1,0-0.2,0.1c-0.1,0-0.1,0.1-0.1,0.2L51.1,36c0,0.1,0,0.1,0,0.2c0,0,0.1,0.1,0.2,0.1
		h0.2c0.1,0,0.1,0,0.2-0.1c0.1,0,0.1-0.1,0.1-0.2l1.7-8.1c0-0.1,0-0.1,0-0.2C53.4,27.7,53.4,27.7,53.3,27.7z"/>
	<path class="st0" d="M55.5,30h-0.2c-0.1,0-0.2,0-0.2,0.1c-0.1,0-0.1,0.1-0.1,0.2L53.8,36c0,0.1,0,0.1,0,0.2c0,0,0.1,0.1,0.2,0.1
		h0.2c0.1,0,0.1,0,0.2-0.1c0.1,0,0.1-0.1,0.1-0.2l1.2-5.8c0-0.1,0-0.1,0-0.2C55.7,30,55.6,30,55.5,30z"/>
	<path class="st0" d="M56.1,27.7h-0.5c-0.1,0-0.1,0-0.2,0.1c-0.1,0.1-0.1,0.1-0.1,0.2l-0.1,0.5c0,0.1,0,0.1,0,0.2
		c0,0,0.1,0.1,0.2,0.1h0.5c0.1,0,0.2,0,0.2-0.1c0.1,0,0.1-0.1,0.1-0.2l0.1-0.5c0-0.1,0-0.1,0-0.2C56.3,27.7,56.2,27.7,56.1,27.7z"/>
	<path class="st0" d="M61.9,30.2c-0.3-0.2-0.8-0.4-1.4-0.4c-0.5,0-0.9,0.1-1.2,0.3c-0.4,0.2-0.7,0.4-0.9,0.7l0.1-0.6
		c0-0.1,0-0.1,0-0.2c0,0-0.1-0.1-0.2-0.1H58c-0.1,0-0.2,0-0.2,0.1c-0.1,0-0.1,0.1-0.1,0.2L56.5,36c0,0.1,0,0.1,0,0.2
		c0,0,0.1,0.1,0.2,0.1h0.2c0.1,0,0.1,0,0.2-0.1c0.1,0,0.1-0.1,0.1-0.2l0.7-3.4c0.1-0.6,0.4-1.2,0.9-1.5c0.5-0.4,1-0.6,1.6-0.6
		c0.7,0,1.1,0.2,1.2,0.5c0.2,0.3,0.2,0.9,0,1.6L61,36c0,0.1,0,0.1,0,0.2c0,0,0.1,0.1,0.2,0.1h0.2c0.1,0,0.1,0,0.2-0.1
		c0.1,0,0.1-0.1,0.1-0.2l0.7-3.4c0.1-0.5,0.1-1,0-1.4C62.4,30.8,62.2,30.5,61.9,30.2z"/>
	<path class="st0" d="M68.8,30.2c-0.3-0.3-0.8-0.4-1.4-0.4c-0.5,0-1,0.1-1.4,0.4c-0.4,0.2-0.8,0.6-1.1,1c-0.3,0.4-0.5,0.9-0.7,1.5
		c0,0.1-0.1,0.3-0.1,0.5c0,0.2-0.1,0.4-0.1,0.5c-0.1,0.5,0,1,0.1,1.5c0.1,0.4,0.4,0.7,0.7,1c0.3,0.2,0.8,0.4,1.3,0.4
		c0.4,0,0.7-0.1,1.1-0.2c0.3-0.1,0.6-0.2,0.9-0.4c0.3-0.2,0.5-0.3,0.6-0.5c0.1-0.2,0.2-0.3,0.3-0.4c0-0.1,0-0.1,0-0.2
		c0,0-0.1-0.1-0.2-0.1h-0.2c-0.1,0-0.2,0-0.2,0c0,0-0.1,0.1-0.2,0.2c-0.1,0.1-0.2,0.2-0.3,0.3c-0.2,0.1-0.4,0.2-0.6,0.3
		c-0.3,0.1-0.6,0.2-0.9,0.2c-0.4,0-0.7-0.1-0.9-0.3c-0.2-0.2-0.4-0.5-0.5-0.8c-0.1-0.3-0.1-0.7,0-1c0,0,0-0.1,0-0.1h4.3
		c0.1,0,0.2,0,0.2-0.1c0.1,0,0.1-0.1,0.1-0.2l0-0.2c0.1-0.6,0.1-1.2,0-1.7C69.4,30.9,69.2,30.5,68.8,30.2z M68.8,32.7L68.8,32.7
		l-3.9,0l0,0c0.1-0.4,0.3-0.8,0.5-1.1c0.2-0.3,0.5-0.6,0.8-0.8c0.3-0.2,0.7-0.3,1.1-0.3c0.4,0,0.7,0.1,1,0.3
		c0.3,0.2,0.4,0.4,0.5,0.8C68.9,31.9,68.9,32.3,68.8,32.7z"/>
	<path class="st0" d="M16.2,0.2L2.4,14C0.9,15.6,0,17.6,0,19.8c0,2.2,0.9,4.2,2.4,5.8L5.8,29c0.1,0.1,0.1,0.1,0.2,0.2l10.3,10.3
		l8.9-8.9l0,0l3.8-3.8l1.1-1.1c0.1-0.1,0.1-0.1,0.2-0.2l0.1-0.1c0.4-0.4,0.8-0.9,1.1-1.5c0,0,0,0,0,0c0,0,0,0,0-0.1
		c0.7-1.2,1-2.6,1-4c0-2.2-0.9-4.2-2.4-5.8L16.2,0.2z M21.6,31l-5.4,5.4L10.8,31c-0.4-0.4-0.6-0.9-0.6-1.5c0-0.6,0.2-1.1,0.6-1.6
		l5.3-5.3l5.3,5.3C22.4,28.8,22.4,30.1,21.6,31z M26.1,25.7L26.1,25.7c-0.2,0.6-0.4,1.2-0.9,1.7c0,0,0,0,0,0c0,0,0,0-0.1,0.1
		l-0.9,0.9c-0.2-0.7-0.6-1.4-1.1-2l-6.8-6.8l-6.8,6.8c-0.6,0.6-0.9,1.2-1.1,2l-1.1-1.1c-0.4-0.5-0.6-1-0.8-1.6l0,0
		c-0.3-1.4,0-2.8,1.1-3.9l8.8-8.8l8.8,8.8C26.1,22.9,26.4,24.4,26.1,25.7z M28.7,24l-0.3,0.3c-0.1-1.4-0.7-2.9-1.8-4L16.2,10
		L5.9,20.3c-1.1,1.1-1.7,2.5-1.8,3.9l-0.4-0.4c-0.5-0.6-1-1.4-1.2-2.2l0,0c-0.2-0.6-0.3-1.2-0.3-1.8c0-1.6,0.6-3.1,1.8-4.3L16.2,3.3
		l12.3,12.3c1.1,1.1,1.8,2.7,1.8,4.3C30.3,21.4,29.7,22.8,28.7,24z"/>
</g>
</svg>
